<?xml version="1.0" encoding="UTF-8"?>
<!DOCTYPE svg PUBLIC "-//W3C//DTD SVG 1.1//EN" "http://www.w3.org/Graphics/SVG/1.1/DTD/svg11.dtd">
<svg xmlns="http://www.w3.org/2000/svg" version="1.1" width="404px" height="404px" style="shape-rendering:geometricPrecision; text-rendering:geometricPrecision; image-rendering:optimizeQuality; fill-rule:evenodd; clip-rule:evenodd" xmlns:xlink="http://www.w3.org/1999/xlink">
<g><path style="opacity:0.997" fill="#d5d4d4" d="M 254.5,82.5 C 253.207,84.2959 251.707,85.9625 250,87.5C 249.667,141.167 249.333,194.833 249,248.5C 247.333,245.167 245.667,241.833 244,238.5C 243,237.167 242,237.167 241,238.5C 240.667,194.5 240.333,150.5 240,106.5C 238.52,103.337 236.02,101.504 232.5,101C 211.5,100.333 190.5,100.333 169.5,101C 166.417,101.786 164.251,103.619 163,106.5C 162.333,150.5 162.333,194.5 163,238.5C 165.081,245.057 169.581,247.723 176.5,246.5C 177.5,246.833 178.167,247.5 178.5,248.5C 179.462,252.146 181.795,253.313 185.5,252C 187.167,250.333 188.833,248.667 190.5,247C 202.008,246.174 213.341,246.341 224.5,247.5C 225.773,249.713 226.773,252.046 227.5,254.5C 228.659,257.662 229.992,260.829 231.5,264C 230.944,265.011 230.278,265.844 229.5,266.5C 228.713,268.104 227.38,268.771 225.5,268.5C 219.587,263.709 212.92,260.209 205.5,258C 202.5,257.333 199.5,257.333 196.5,258C 192.979,259.592 189.646,261.425 186.5,263.5C 184.311,262.438 181.978,261.772 179.5,261.5C 177.012,261.371 175.679,262.038 175.5,263.5C 172.63,265.648 171.963,268.315 173.5,271.5C 172.677,274.072 171.011,275.239 168.5,275C 167.065,272.733 167.398,270.733 169.5,269C 168,268.167 166.833,267 166,265.5C 165.667,265.833 165.333,266.167 165,266.5C 164.399,269.206 162.899,271.206 160.5,272.5C 161.846,275.855 163.18,279.188 164.5,282.5C 162.906,285.764 160.573,288.431 157.5,290.5C 156.167,290.5 154.833,290.5 153.5,290.5C 153.5,284.833 153.5,279.167 153.5,273.5C 154.833,271.167 154.833,268.833 153.5,266.5C 153.824,216.125 153.491,165.791 152.5,115.5C 152.333,95.1639 152.5,74.8306 153,54.5C 154.167,52.6667 155.667,51.1667 157.5,50C 186.5,49.3333 215.5,49.3333 244.5,50C 246.333,51.1667 247.833,52.6667 249,54.5C 249.168,64.5166 249.668,74.5166 250.5,84.5C 251.622,83.3698 252.956,82.7031 254.5,82.5 Z"/></g>
<g><path style="opacity:1" fill="#c2c0c0" d="M 171.5,61.5 C 191.901,61.0353 212.234,61.5353 232.5,63C 234.552,63.9299 236.052,65.4299 237,67.5C 237.87,73.9172 237.536,80.2506 236,86.5C 234.891,88.8147 233.057,90.3147 230.5,91C 210.5,91.6667 190.5,91.6667 170.5,91C 165.489,87.1532 163.489,81.9866 164.5,75.5C 163.406,68.9726 165.74,64.3059 171.5,61.5 Z"/></g>
<g><path style="opacity:1" fill="#5f5e5e" d="M 196.5,69.5 C 195.833,69.5 195.5,69.8333 195.5,70.5C 193.473,70.6621 191.473,70.4955 189.5,70C 191.819,68.2721 194.153,68.1054 196.5,69.5 Z"/></g>
<g><path style="opacity:1" fill="#0d0c0c" d="M 196.5,69.5 C 196.663,71.8568 196.497,74.1902 196,76.5C 194.644,75.6198 193.144,75.2865 191.5,75.5C 191.5,77.8333 191.5,80.1667 191.5,82.5C 193.821,82.7711 195.821,82.1045 197.5,80.5C 198.521,81.0016 198.688,81.6683 198,82.5C 195.619,83.435 193.119,83.7683 190.5,83.5C 190.5,80.5 190.5,77.5 190.5,74.5C 192.167,74.5 193.833,74.5 195.5,74.5C 195.5,73.1667 195.5,71.8333 195.5,70.5C 195.5,69.8333 195.833,69.5 196.5,69.5 Z"/></g>
<g><path style="opacity:1" fill="#444343" d="M 185.5,68.5 C 185.907,69.7618 186.24,71.0951 186.5,72.5C 187.451,71.6744 188.451,71.5078 189.5,72C 187.787,73.3782 186.453,75.0448 185.5,77C 188.937,77.6493 189.104,78.1493 186,78.5C 182.987,77.9555 182.821,76.7888 185.5,75C 184.376,74.7508 183.376,74.2508 182.5,73.5C 183.763,71.9713 184.763,70.3046 185.5,68.5 Z"/></g>
<g><path style="opacity:1" fill="#555454" d="M 209.5,69.5 C 211.754,70.4151 213.754,71.7484 215.5,73.5C 215.062,74.5063 214.396,74.5063 213.5,73.5C 212.5,74.8333 211.5,76.1667 210.5,77.5C 209.304,77.1543 209.304,76.6543 210.5,76C 206.828,75.3034 203.495,74.6368 200.5,74C 203.128,72.3745 205.461,70.3745 207.5,68C 208.816,67.4719 209.483,67.9719 209.5,69.5 Z"/></g>
<g><path style="opacity:1" fill="#c1bfbf" d="M 209.5,69.5 C 208.751,72.0952 207.084,73.2619 204.5,73C 205.789,71.1978 207.456,70.0312 209.5,69.5 Z"/></g>
<g><path style="opacity:1" fill="#272727" d="M 212.5,77.5 C 213.627,78.1217 214.627,78.955 215.5,80C 213.511,80.5192 212.511,79.6859 212.5,77.5 Z"/></g>
<g><path style="opacity:1" fill="#262626" d="M 184.5,80.5 C 189.696,80.5649 189.696,81.2316 184.5,82.5C 183.537,82.0302 183.537,81.3635 184.5,80.5 Z"/></g>
<g><path style="opacity:1" fill="#484747" d="M 201.5,78.5 C 202.782,79.7082 202.782,81.0416 201.5,82.5C 200.708,81.3002 200.708,79.9669 201.5,78.5 Z"/></g>
<g><path style="opacity:1" fill="#373636" d="M 204.5,78.5 C 205.925,82.8157 208.425,83.4823 212,80.5C 212.617,81.4491 212.451,82.2825 211.5,83C 209.19,83.4966 206.857,83.6633 204.5,83.5C 204.5,81.8333 204.5,80.1667 204.5,78.5 Z"/></g>
<g><path style="opacity:1" fill="#bbb9b9" d="M 254.5,82.5 C 256.5,82.5 258.5,82.5 260.5,82.5C 262.437,83.9314 264.27,85.5981 266,87.5C 266.5,147.499 266.667,207.499 266.5,267.5C 259.372,274.97 256.372,283.97 257.5,294.5C 251.183,280.572 244.85,266.572 238.5,252.5C 240.042,251.837 241.709,251.17 243.5,250.5C 241.921,247.006 240.087,243.673 238,240.5C 236.007,241.914 233.84,242.914 231.5,243.5C 231.369,242.624 231.702,241.957 232.5,241.5C 234.059,240.926 235.559,240.26 237,239.5C 237.667,195.5 237.667,151.5 237,107.5C 235.786,105.951 234.286,104.785 232.5,104C 211.5,103.333 190.5,103.333 169.5,104C 168.333,105.167 167.167,106.333 166,107.5C 165.333,151.167 165.333,194.833 166,238.5C 169.059,244.647 172.559,244.981 176.5,239.5C 177.98,240.432 179.313,240.432 180.5,239.5C 180.873,242.932 179.54,245.266 176.5,246.5C 169.581,247.723 165.081,245.057 163,238.5C 162.333,194.5 162.333,150.5 163,106.5C 164.251,103.619 166.417,101.786 169.5,101C 190.5,100.333 211.5,100.333 232.5,101C 236.02,101.504 238.52,103.337 240,106.5C 240.333,150.5 240.667,194.5 241,238.5C 242,237.167 243,237.167 244,238.5C 245.667,241.833 247.333,245.167 249,248.5C 249.333,194.833 249.667,141.167 250,87.5C 251.707,85.9625 253.207,84.2959 254.5,82.5 Z"/></g>
<g><path style="opacity:0.998" fill="#d5d5d5" d="M 260.5,82.5 C 281.836,82.3334 303.169,82.5 324.5,83C 326.333,84.1667 327.833,85.6667 329,87.5C 329.5,158.166 329.667,228.833 329.5,299.5C 329.5,301.5 329.5,303.5 329.5,305.5C 337.84,305.334 346.173,305.5 354.5,306C 356.286,306.785 357.786,307.951 359,309.5C 360.598,317.061 360.931,324.728 360,332.5C 359.215,334.286 358.049,335.786 356.5,337C 330.923,338.481 305.256,338.981 279.5,338.5C 277.537,337.04 275.704,335.373 274,333.5C 269.201,322.932 264.701,312.265 260.5,301.5C 263.796,303.721 267.463,304.887 271.5,305C 283.5,305.667 295.5,305.667 307.5,305C 314.071,304.816 318.238,301.649 320,295.5C 320.667,291.5 320.667,287.5 320,283.5C 316.222,281.927 312.389,280.427 308.5,279C 306.859,277.871 305.859,276.371 305.5,274.5C 311.047,280.035 317.713,281.868 325.5,280C 323.23,275.463 320.23,271.463 316.5,268C 312.469,266.509 308.469,265.343 304.5,264.5C 304.938,264.565 305.272,264.399 305.5,264C 297.09,260.922 288.424,259.922 279.5,261C 274.592,262.121 270.259,264.287 266.5,267.5C 266.667,207.499 266.5,147.499 266,87.5C 264.27,85.5981 262.437,83.9314 260.5,82.5 Z"/></g>
<g><path style="opacity:1" fill="#c4c3c3" d="M 281.5,92.5 C 292.172,92.3335 302.839,92.5002 313.5,93C 319.069,94.4464 321.736,98.1131 321.5,104C 322.031,110.301 319.365,114.301 313.5,116C 302.833,116.667 292.167,116.667 281.5,116C 274.922,112.439 272.755,106.939 275,99.5C 276.018,95.9853 278.185,93.652 281.5,92.5 Z"/></g>
<g><path style="opacity:1" fill="#c6c2c2" d="M 231.5,243.5 C 218.829,243.667 206.162,243.5 193.5,243C 194.743,241.184 194.41,239.684 192.5,238.5C 193.509,233.36 191.509,232.193 186.5,235C 185.044,236.745 183.711,238.578 182.5,240.5C 181.817,240.137 181.15,239.804 180.5,239.5C 179.313,240.432 177.98,240.432 176.5,239.5C 172.559,244.981 169.059,244.647 166,238.5C 165.333,194.833 165.333,151.167 166,107.5C 167.167,106.333 168.333,105.167 169.5,104C 190.5,103.333 211.5,103.333 232.5,104C 234.286,104.785 235.786,105.951 237,107.5C 237.667,151.5 237.667,195.5 237,239.5C 235.559,240.26 234.059,240.926 232.5,241.5C 231.702,241.957 231.369,242.624 231.5,243.5 Z"/></g>
<g><path style="opacity:1" fill="#120e0e" d="M 226.5,113.5 C 222.353,114.325 218.019,114.825 213.5,115C 211.689,116.041 211.355,117.207 212.5,118.5C 216.167,118.5 219.833,118.5 223.5,118.5C 223.5,123.5 223.5,128.5 223.5,133.5C 221.891,133.906 220.557,133.906 219.5,133.5C 220.95,132.15 221.617,130.484 221.5,128.5C 217.833,128.5 214.167,128.5 210.5,128.5C 210.799,130.604 210.466,132.604 209.5,134.5C 208.673,130.541 208.173,126.541 208,122.5C 206.871,124.141 205.371,125.141 203.5,125.5C 205.497,123.487 207.164,121.154 208.5,118.5C 209.391,117.739 210.058,116.739 210.5,115.5C 208.257,114.526 205.924,114.192 203.5,114.5C 205.969,113.683 208.635,113.183 211.5,113C 212.191,111.933 212.691,110.766 213,109.5C 215.109,110.035 215.609,111.035 214.5,112.5C 218.445,113.491 222.445,113.824 226.5,113.5 Z"/></g>
<g><path style="opacity:1" fill="#211b1a" d="M 198.5,118.5 C 196.735,119.461 194.735,119.795 192.5,119.5C 192.5,117.167 192.5,114.833 192.5,112.5C 190.833,112.5 189.167,112.5 187.5,112.5C 187.702,114.989 187.202,117.323 186,119.5C 183.573,120.567 183.073,119.9 184.5,117.5C 185.468,115.393 185.802,113.059 185.5,110.5C 188.5,110.5 191.5,110.5 194.5,110.5C 194.5,112.833 194.5,115.167 194.5,117.5C 196.099,117.232 197.432,117.566 198.5,118.5 Z"/></g>
<g><path style="opacity:0.998" fill="#bab9b9" d="M 152.5,115.5 C 153.491,165.791 153.824,216.125 153.5,266.5C 151.078,264.35 148.411,264.017 145.5,265.5C 143.205,261.538 140.205,258.205 136.5,255.5C 136.333,209.499 136.5,163.499 137,117.5C 138.376,116.295 139.542,114.962 140.5,113.5C 144.869,111.765 148.869,112.431 152.5,115.5 Z"/></g>
<g><path style="opacity:1" fill="#0f0c0c" d="M 181.5,112.5 C 182.895,113.648 182.728,114.648 181,115.5C 179.961,114.29 178.794,113.29 177.5,112.5C 178.594,110.164 179.927,110.164 181.5,112.5 Z"/></g>
<g><path style="opacity:0.998" fill="#d5d5d5" d="M 140.5,113.5 C 139.542,114.962 138.376,116.295 137,117.5C 136.5,163.499 136.333,209.499 136.5,255.5C 133.369,253.268 130.036,251.601 126.5,250.5C 127.833,235.515 128.499,220.182 128.5,204.5C 128.333,189.167 128.167,173.833 128,158.5C 126.52,155.337 124.02,153.504 120.5,153C 108.5,152.333 96.5,152.333 84.5,153C 82,154.167 80.1667,156 79,158.5C 78.3333,190.5 78.3333,222.5 79,254.5C 79.504,258.02 81.3374,260.52 84.5,262C 91.8258,262.5 99.1591,262.666 106.5,262.5C 105.833,263.5 105.167,264.5 104.5,265.5C 101.589,264.017 98.9225,264.35 96.5,266.5C 95.5041,266.414 94.6708,266.748 94,267.5C 92.1125,274.113 94.6125,277.447 101.5,277.5C 101.184,285.752 101.518,293.919 102.5,302C 92.8391,302.5 83.1724,302.666 73.5,302.5C 73.5,301.5 73.5,300.5 73.5,299.5C 73.3333,239.166 73.5,178.832 74,118.5C 75.1667,116.667 76.6667,115.167 78.5,114C 99.164,113.5 119.831,113.333 140.5,113.5 Z"/></g>
<g><path style="opacity:1" fill="#9b6a6a" d="M 226.5,113.5 C 227.774,114.189 227.774,115.023 226.5,116C 222.167,116.333 217.833,116.667 213.5,117C 212.944,117.383 212.611,117.883 212.5,118.5C 211.355,117.207 211.689,116.041 213.5,115C 218.019,114.825 222.353,114.325 226.5,113.5 Z"/></g>
<g><path style="opacity:1" fill="#a37978" d="M 203.5,114.5 C 205.924,114.192 208.257,114.526 210.5,115.5C 210.058,116.739 209.391,117.739 208.5,118.5C 207.081,117.549 205.415,117.216 203.5,117.5C 203.5,116.5 203.5,115.5 203.5,114.5 Z"/></g>
<g><path style="opacity:1" fill="#100c0c" d="M 177.5,117.5 C 178.66,118.265 179.66,119.265 180.5,120.5C 178.495,121.499 177.162,120.832 176.5,118.5C 176.5,117.833 176.833,117.5 177.5,117.5 Z"/></g>
<g><path style="opacity:1" fill="#b29291" d="M 177.5,112.5 C 178.794,113.29 179.961,114.29 181,115.5C 182.728,114.648 182.895,113.648 181.5,112.5C 183.028,113.802 184.028,115.469 184.5,117.5C 183.073,119.9 183.573,120.567 186,119.5C 187.202,117.323 187.702,114.989 187.5,112.5C 189.167,112.5 190.833,112.5 192.5,112.5C 192.5,114.833 192.5,117.167 192.5,119.5C 194.735,119.795 196.735,119.461 198.5,118.5C 199.573,119.251 199.74,120.251 199,121.5C 197.343,124.646 195.509,127.646 193.5,130.5C 192.427,129.749 192.26,128.749 193,127.5C 194.292,125.751 195.458,123.918 196.5,122C 192.129,121.172 187.795,121.339 183.5,122.5C 184.612,123.265 185.279,124.265 185.5,125.5C 184.178,125.67 183.011,125.337 182,124.5C 181.578,128.009 180.578,131.343 179,134.5C 177.989,135.337 176.822,135.67 175.5,135.5C 175.232,133.901 175.566,132.568 176.5,131.5C 176.369,132.376 176.702,133.043 177.5,133.5C 178.791,131.129 179.791,128.629 180.5,126C 180.164,124.97 179.497,124.47 178.5,124.5C 177.286,123.374 176.286,122.041 175.5,120.5C 175.543,119.584 175.876,118.917 176.5,118.5C 177.162,120.832 178.495,121.499 180.5,120.5C 179.66,119.265 178.66,118.265 177.5,117.5C 178.096,116.065 178.096,114.398 177.5,112.5 Z"/></g>
<g><path style="opacity:1" fill="#a37372" d="M 210.5,119.5 C 214.167,119.5 217.833,119.5 221.5,119.5C 221.5,120.5 221.5,121.5 221.5,122.5C 217.833,122.5 214.167,122.5 210.5,122.5C 210.5,121.5 210.5,120.5 210.5,119.5 Z"/></g>
<g><path style="opacity:1" fill="#bbbaba" d="M 279.5,123.5 C 291.838,123.333 304.171,123.5 316.5,124C 319.583,124.786 321.749,126.619 323,129.5C 323.667,162.833 323.667,196.167 323,229.5C 322.5,234 320,236.5 315.5,237C 303.5,237.667 291.5,237.667 279.5,237C 276.337,235.52 274.504,233.02 274,229.5C 273.333,196.167 273.333,162.833 274,129.5C 275.36,126.977 277.193,124.977 279.5,123.5 Z"/></g>
<g><path style="opacity:1" fill="#171514" d="M 178.5,124.5 C 179.497,124.47 180.164,124.97 180.5,126C 179.791,128.629 178.791,131.129 177.5,133.5C 176.702,133.043 176.369,132.376 176.5,131.5C 177.167,129.167 177.833,126.833 178.5,124.5 Z"/></g>
<g><path style="opacity:1" fill="#a47575" d="M 210.5,124.5 C 214.167,124.5 217.833,124.5 221.5,124.5C 221.5,125.5 221.5,126.5 221.5,127.5C 217.833,127.5 214.167,127.5 210.5,127.5C 210.5,126.5 210.5,125.5 210.5,124.5 Z"/></g>
<g><path style="opacity:1" fill="#c7c5c5" d="M 280.5,126.5 C 292.171,126.333 303.838,126.5 315.5,127C 317.286,127.785 318.786,128.951 320,130.5C 320.667,163.833 320.667,197.167 320,230.5C 318.833,231.667 317.667,232.833 316.5,234C 304.5,234.667 292.5,234.667 280.5,234C 278.951,232.786 277.785,231.286 277,229.5C 276.333,196.5 276.333,163.5 277,130.5C 278.376,129.295 279.542,127.962 280.5,126.5 Z"/></g>
<g><path style="opacity:1" fill="#c4c2c2" d="M 86.5,123.5 C 98.243,123.064 109.91,123.564 121.5,125C 126.678,129.524 127.845,135.024 125,141.5C 123.891,143.815 122.057,145.315 119.5,146C 108.167,146.667 96.8333,146.667 85.5,146C 78.9677,140.613 77.8011,134.113 82,126.5C 83.6516,125.601 85.1516,124.601 86.5,123.5 Z"/></g>
<g><path style="opacity:1" fill="#150f0e" d="M 193.5,130.5 C 195.414,131.185 197.414,131.685 199.5,132C 198.748,132.671 198.414,133.504 198.5,134.5C 195.849,133.51 193.183,132.51 190.5,131.5C 188.056,132.222 185.722,133.222 183.5,134.5C 182.817,134.137 182.15,133.804 181.5,133.5C 183.762,132.177 186.096,130.843 188.5,129.5C 187.479,128.099 186.479,126.765 185.5,125.5C 185.279,124.265 184.612,123.265 183.5,122.5C 187.795,121.339 192.129,121.172 196.5,122C 195.458,123.918 194.292,125.751 193,127.5C 192.26,128.749 192.427,129.749 193.5,130.5 Z"/></g>
<g><path style="opacity:1" fill="#b08483" d="M 187.5,123.5 C 194.472,122.434 195.305,124.101 190,128.5C 188.628,127.09 187.795,125.423 187.5,123.5 Z"/></g>
<g><path style="opacity:1" fill="#ab6868" d="M 198.5,134.5 C 195.731,135.453 192.897,135.12 190,133.5C 187.295,134.939 184.462,135.939 181.5,136.5C 181.5,135.5 181.5,134.5 181.5,133.5C 182.15,133.804 182.817,134.137 183.5,134.5C 185.722,133.222 188.056,132.222 190.5,131.5C 193.183,132.51 195.849,133.51 198.5,134.5 Z"/></g>
<g><path style="opacity:1" fill="#ac8483" d="M 223.5,133.5 C 222.952,136.084 221.285,137.084 218.5,136.5C 218.5,134.833 218.5,133.167 218.5,131.5C 216.167,131.5 213.833,131.5 211.5,131.5C 211.5,133.5 211.5,135.5 211.5,137.5C 210.178,137.67 209.011,137.337 208,136.5C 207.502,133.518 207.335,130.518 207.5,127.5C 205.517,127.843 204.183,127.176 203.5,125.5C 205.371,125.141 206.871,124.141 208,122.5C 208.173,126.541 208.673,130.541 209.5,134.5C 210.466,132.604 210.799,130.604 210.5,128.5C 214.167,128.5 217.833,128.5 221.5,128.5C 221.617,130.484 220.95,132.15 219.5,133.5C 220.557,133.906 221.891,133.906 223.5,133.5 Z"/></g>
<g><path style="opacity:1" fill="#bbbaba" d="M 126.5,250.5 C 124.011,250.298 121.677,250.798 119.5,252C 114.713,254.955 110.38,258.455 106.5,262.5C 99.1591,262.666 91.8258,262.5 84.5,262C 81.3374,260.52 79.504,258.02 79,254.5C 78.3333,222.5 78.3333,190.5 79,158.5C 80.1667,156 82,154.167 84.5,153C 96.5,152.333 108.5,152.333 120.5,153C 124.02,153.504 126.52,155.337 128,158.5C 128.167,173.833 128.333,189.167 128.5,204.5C 128.499,220.182 127.833,235.515 126.5,250.5 Z"/></g>
<g><path style="opacity:1" fill="#c7c5c5" d="M 85.5,155.5 C 97.1714,155.333 108.838,155.5 120.5,156C 122.286,156.785 123.786,157.951 125,159.5C 125.5,188.831 125.667,218.165 125.5,247.5C 117.598,248.958 110.931,252.791 105.5,259C 98.8333,259.667 92.1667,259.667 85.5,259C 83.9512,257.786 82.7845,256.286 82,254.5C 81.3333,222.833 81.3333,191.167 82,159.5C 83.3756,158.295 84.5423,156.962 85.5,155.5 Z"/></g>
<g><path style="opacity:1" fill="#1b1818" d="M 198.5,163.5 C 195.102,163.18 191.768,163.513 188.5,164.5C 187.965,166.261 186.965,167.594 185.5,168.5C 185.5,167.833 185.5,167.167 185.5,166.5C 186.669,163.489 188.336,160.822 190.5,158.5C 191.711,159.274 191.711,160.107 190.5,161C 193.675,160.947 196.342,161.78 198.5,163.5 Z"/></g>
<g><path style="opacity:1" fill="#030101" d="M 223.5,158.5 C 225.465,165.76 226.132,173.427 225.5,181.5C 223.834,182.666 222.167,182.666 220.5,181.5C 221.325,180.614 222.325,180.281 223.5,180.5C 223.5,173.167 223.5,165.833 223.5,158.5 Z"/></g>
<g><path style="opacity:1" fill="#130d0d" d="M 181.5,175.5 C 180.5,175.5 179.5,175.5 178.5,175.5C 178.843,177.483 178.176,178.817 176.5,179.5C 176.5,173.5 176.5,167.5 176.5,161.5C 178.833,161.5 181.167,161.5 183.5,161.5C 183.666,166.511 183.499,171.511 183,176.5C 182.617,175.944 182.117,175.611 181.5,175.5 Z"/></g>
<g><path style="opacity:1" fill="#191616" d="M 216.5,169.5 C 214.565,168.85 212.565,168.517 210.5,168.5C 210.232,170.099 210.566,171.432 211.5,172.5C 212.978,172.238 214.311,172.571 215.5,173.5C 213.955,174.452 212.288,174.785 210.5,174.5C 210.5,175.5 210.5,176.5 210.5,177.5C 212.604,177.201 214.604,177.534 216.5,178.5C 212.072,179.258 207.738,180.258 203.5,181.5C 203.5,180.5 203.5,179.5 203.5,178.5C 204.833,178.5 206.167,178.5 207.5,178.5C 208.434,177.432 208.768,176.099 208.5,174.5C 203.167,173.833 203.167,173.167 208.5,172.5C 208.5,171.5 208.5,170.5 208.5,169.5C 206.833,169.5 205.167,169.5 203.5,169.5C 204.075,167.589 205.075,165.922 206.5,164.5C 209.834,162.186 210.168,162.853 207.5,166.5C 209.5,167.833 211.5,167.833 213.5,166.5C 212.494,165.604 212.494,164.938 213.5,164.5C 215.262,165.688 216.262,167.355 216.5,169.5 Z"/></g>
<g><path style="opacity:1" fill="#936666" d="M 198.5,163.5 C 195.471,165.075 192.138,166.241 188.5,167C 190.81,167.497 193.143,167.663 195.5,167.5C 193.031,168.317 190.365,168.817 187.5,169C 189.167,169.333 190.833,169.667 192.5,170C 191.934,170.995 191.267,171.828 190.5,172.5C 188.257,171.868 186.591,170.534 185.5,168.5C 186.965,167.594 187.965,166.261 188.5,164.5C 191.768,163.513 195.102,163.18 198.5,163.5 Z"/></g>
<g><path style="opacity:1" fill="#a37373" d="M 216.5,169.5 C 215.198,171.028 213.531,172.028 211.5,172.5C 210.566,171.432 210.232,170.099 210.5,168.5C 212.565,168.517 214.565,168.85 216.5,169.5 Z"/></g>
<g><path style="opacity:1" fill="#7e6262" d="M 185.5,166.5 C 185.5,167.167 185.5,167.833 185.5,168.5C 184.523,171.287 184.19,174.287 184.5,177.5C 182.821,177.715 181.821,177.048 181.5,175.5C 182.117,175.611 182.617,175.944 183,176.5C 183.499,171.511 183.666,166.511 183.5,161.5C 181.167,161.5 178.833,161.5 176.5,161.5C 176.5,167.5 176.5,173.5 176.5,179.5C 175.51,173.355 175.177,167.022 175.5,160.5C 178.5,160.5 181.5,160.5 184.5,160.5C 184.205,162.735 184.539,164.735 185.5,166.5 Z"/></g>
<g><path style="opacity:1" fill="#ba9f9e" d="M 178.5,162.5 C 179.5,162.5 180.5,162.5 181.5,162.5C 181.5,166.167 181.5,169.833 181.5,173.5C 180.5,173.5 179.5,173.5 178.5,173.5C 178.5,169.833 178.5,166.167 178.5,162.5 Z"/></g>
<g><path style="opacity:1" fill="#b58b8b" d="M 203.5,169.5 C 205.167,169.5 206.833,169.5 208.5,169.5C 208.5,170.5 208.5,171.5 208.5,172.5C 203.167,173.167 203.167,173.833 208.5,174.5C 208.768,176.099 208.434,177.432 207.5,178.5C 206.432,177.566 205.099,177.232 203.5,177.5C 203.5,174.833 203.5,172.167 203.5,169.5 Z"/></g>
<g><path style="opacity:1" fill="#0a0505" d="M 195.5,167.5 C 196.525,167.897 196.692,168.563 196,169.5C 192.738,172.092 190.238,175.259 188.5,179C 192.723,181.466 196.057,180.633 198.5,176.5C 199.807,177.802 199.807,179.135 198.5,180.5C 194.893,181.489 191.226,181.823 187.5,181.5C 187.5,180.167 187.5,178.833 187.5,177.5C 188.248,175.668 189.248,174.001 190.5,172.5C 191.267,171.828 191.934,170.995 192.5,170C 190.833,169.667 189.167,169.333 187.5,169C 190.365,168.817 193.031,168.317 195.5,167.5 Z"/></g>
<g><path style="opacity:1" fill="#a48787" d="M 223.5,158.5 C 223.5,165.833 223.5,173.167 223.5,180.5C 222.325,180.281 221.325,180.614 220.5,181.5C 222.167,182.666 223.834,182.666 225.5,181.5C 225.586,182.496 225.252,183.329 224.5,184C 222.866,184.494 221.199,184.66 219.5,184.5C 219.785,182.712 219.452,181.045 218.5,179.5C 217.614,180.325 217.281,181.325 217.5,182.5C 212.637,182.819 207.97,182.486 203.5,181.5C 207.738,180.258 212.072,179.258 216.5,178.5C 214.604,177.534 212.604,177.201 210.5,177.5C 210.5,176.5 210.5,175.5 210.5,174.5C 212.288,174.785 213.955,174.452 215.5,173.5C 214.311,172.571 212.978,172.238 211.5,172.5C 213.531,172.028 215.198,171.028 216.5,169.5C 216.262,167.355 215.262,165.688 213.5,164.5C 212.494,164.938 212.494,165.604 213.5,166.5C 211.5,167.833 209.5,167.833 207.5,166.5C 210.168,162.853 209.834,162.186 206.5,164.5C 205.791,163.596 204.791,163.263 203.5,163.5C 203.5,162.167 203.5,160.833 203.5,159.5C 208.728,159.075 213.728,159.742 218.5,161.5C 218.173,166.544 218.506,171.544 219.5,176.5C 220.492,172.217 220.826,167.884 220.5,163.5C 221.402,168.825 221.735,174.158 221.5,179.5C 222.167,172.345 222.833,165.345 223.5,158.5 Z"/></g>
<g><path style="opacity:1" fill="#352727" d="M 218.5,161.5 C 219.833,161.5 220.5,162.167 220.5,163.5C 220.826,167.884 220.492,172.217 219.5,176.5C 218.506,171.544 218.173,166.544 218.5,161.5 Z"/></g>
<g><path style="opacity:1" fill="#9e6e6e" d="M 198.5,176.5 C 200.852,177.952 201.185,179.952 199.5,182.5C 197.465,184.013 195.131,184.679 192.5,184.5C 186.76,184.969 185.094,182.636 187.5,177.5C 187.5,178.833 187.5,180.167 187.5,181.5C 191.226,181.823 194.893,181.489 198.5,180.5C 199.807,179.135 199.807,177.802 198.5,176.5 Z"/></g>
<g><path style="opacity:1" fill="#0f0c0c" d="M 182.5,208.5 C 181.596,209.209 181.263,210.209 181.5,211.5C 182.833,211.5 184.167,211.5 185.5,211.5C 185.178,217.358 185.511,223.025 186.5,228.5C 186.5,228.833 186.5,229.167 186.5,229.5C 184.971,228.653 183.304,227.986 181.5,227.5C 179.97,227.64 178.97,228.307 178.5,229.5C 177.835,226.686 177.502,223.686 177.5,220.5C 177.591,216.902 178.257,213.569 179.5,210.5C 179.971,209.099 180.638,207.766 181.5,206.5C 182.298,206.957 182.631,207.624 182.5,208.5 Z"/></g>
<g><path style="opacity:1" fill="#0e0808" d="M 198.5,217.5 C 198.5,221.167 198.5,224.833 198.5,228.5C 196.489,230.387 194.489,230.554 192.5,229C 193.416,228.722 194.082,228.222 194.5,227.5C 194.833,227.5 195.167,227.5 195.5,227.5C 196.487,222.695 196.821,217.695 196.5,212.5C 194.396,212.201 192.396,212.534 190.5,213.5C 190.121,215.213 189.121,216.213 187.5,216.5C 187.5,216.167 187.5,215.833 187.5,215.5C 188.566,213.299 189.233,210.965 189.5,208.5C 190.423,207.697 191.423,207.53 192.5,208C 191.663,209.011 191.33,210.178 191.5,211.5C 193.833,211.5 196.167,211.5 198.5,211.5C 198.5,213.5 198.5,215.5 198.5,217.5 Z"/></g>
<g><path style="opacity:1" fill="#110b0b" d="M 221.5,207.5 C 223.698,207.12 225.365,207.787 226.5,209.5C 222.833,209.5 219.167,209.5 215.5,209.5C 215.232,211.099 215.566,212.432 216.5,213.5C 219.572,213.183 222.572,213.516 225.5,214.5C 224.814,217.765 223.814,220.932 222.5,224C 223.072,226.074 224.405,227.24 226.5,227.5C 226.719,228.675 226.386,229.675 225.5,230.5C 223.851,229.352 222.351,228.019 221,226.5C 219.226,227.965 217.392,229.298 215.5,230.5C 215.5,229.833 215.167,229.5 214.5,229.5C 216.452,228.215 218.118,226.549 219.5,224.5C 218.296,222.097 217.962,219.764 218.5,217.5C 220.368,223.988 221.702,223.988 222.5,217.5C 223.404,216.791 223.737,215.791 223.5,214.5C 220.833,214.5 218.167,214.5 215.5,214.5C 215.5,216.5 215.5,218.5 215.5,220.5C 214.824,224.187 213.324,227.52 211,230.5C 210.5,230 210,229.5 209.5,229C 211.902,226.297 213.235,223.13 213.5,219.5C 214.482,216.038 214.815,212.371 214.5,208.5C 217.059,208.802 219.393,208.468 221.5,207.5 Z"/></g>
<g><path style="opacity:1" fill="#15100f" d="M 212.5,210.5 C 212.5,210.833 212.5,211.167 212.5,211.5C 212.372,213.09 211.705,214.423 210.5,215.5C 209.289,214.726 209.289,213.893 210.5,213C 207.196,211.958 205.029,213.125 204,216.5C 203.617,215.944 203.117,215.611 202.5,215.5C 203.832,212.165 205.665,209.165 208,206.5C 208.5,206.667 209,206.833 209.5,207C 208.643,207.689 207.977,208.522 207.5,209.5C 209.045,210.452 210.712,210.785 212.5,210.5 Z"/></g>
<g><path style="opacity:1" fill="#a36b6b" d="M 226.5,209.5 C 223.167,210.833 219.833,212.167 216.5,213.5C 215.566,212.432 215.232,211.099 215.5,209.5C 219.167,209.5 222.833,209.5 226.5,209.5 Z"/></g>
<g><path style="opacity:1" fill="#8d8181" d="M 198.5,217.5 C 198.5,215.5 198.5,213.5 198.5,211.5C 196.167,211.5 193.833,211.5 191.5,211.5C 191.33,210.178 191.663,209.011 192.5,208C 191.423,207.53 190.423,207.697 189.5,208.5C 191.381,205.892 193.048,206.225 194.5,209.5C 196.045,210.452 197.712,210.785 199.5,210.5C 199.802,213.059 199.468,215.393 198.5,217.5 Z"/></g>
<g><path style="opacity:1" fill="#6e5b5a" d="M 221.5,207.5 C 219.393,208.468 217.059,208.802 214.5,208.5C 214.815,212.371 214.482,216.038 213.5,219.5C 213.806,216.615 213.473,213.948 212.5,211.5C 212.5,211.167 212.5,210.833 212.5,210.5C 213.404,209.791 213.737,208.791 213.5,207.5C 216.167,207.5 218.833,207.5 221.5,207.5 Z"/></g>
<g><path style="opacity:1" fill="#4e3737" d="M 179.5,210.5 C 178.257,213.569 177.591,216.902 177.5,220.5C 177.502,223.686 177.835,226.686 178.5,229.5C 178.158,230.338 177.492,230.672 176.5,230.5C 176.5,223.833 176.5,217.167 176.5,210.5C 177.5,210.5 178.5,210.5 179.5,210.5 Z"/></g>
<g><path style="opacity:1" fill="#6f4949" d="M 183.5,217.5 C 183.5,216.167 183.5,214.833 183.5,213.5C 182.167,213.5 180.833,213.5 179.5,213.5C 179.5,214.833 179.5,216.167 179.5,217.5C 178.549,216.081 178.216,214.415 178.5,212.5C 180.5,212.5 182.5,212.5 184.5,212.5C 184.784,214.415 184.451,216.081 183.5,217.5 Z"/></g>
<g><path style="opacity:1" fill="#503a39" d="M 182.5,208.5 C 183.183,210.176 184.517,210.843 186.5,210.5C 186.216,212.415 186.549,214.081 187.5,215.5C 187.5,215.833 187.5,216.167 187.5,216.5C 186.662,216.842 186.328,217.508 186.5,218.5C 186.5,221.833 186.5,225.167 186.5,228.5C 185.511,223.025 185.178,217.358 185.5,211.5C 184.167,211.5 182.833,211.5 181.5,211.5C 181.263,210.209 181.596,209.209 182.5,208.5 Z"/></g>
<g><path style="opacity:1" fill="#a37877" d="M 195.5,227.5 C 195.5,223.5 195.5,219.5 195.5,215.5C 193.801,215.34 192.134,215.506 190.5,216C 191.056,216.383 191.389,216.883 191.5,217.5C 190.508,217.328 189.842,217.662 189.5,218.5C 188.5,218.5 187.5,218.5 186.5,218.5C 186.328,217.508 186.662,216.842 187.5,216.5C 189.121,216.213 190.121,215.213 190.5,213.5C 192.396,212.534 194.396,212.201 196.5,212.5C 196.821,217.695 196.487,222.695 195.5,227.5 Z"/></g>
<g><path style="opacity:1" fill="#765858" d="M 222.5,217.5 C 221.082,215.692 219.082,215.025 216.5,215.5C 216.784,217.415 216.451,219.081 215.5,220.5C 215.5,218.5 215.5,216.5 215.5,214.5C 218.167,214.5 220.833,214.5 223.5,214.5C 223.737,215.791 223.404,216.791 222.5,217.5 Z"/></g>
<g><path style="opacity:1" fill="#c2a6a6" d="M 183.5,217.5 C 182.167,217.5 180.833,217.5 179.5,217.5C 179.5,216.167 179.5,214.833 179.5,213.5C 180.833,213.5 182.167,213.5 183.5,213.5C 183.5,214.833 183.5,216.167 183.5,217.5 Z"/></g>
<g><path style="opacity:1" fill="#1c1717" d="M 191.5,217.5 C 192.867,219.142 193.201,220.808 192.5,222.5C 191.016,221.533 190.016,220.2 189.5,218.5C 189.842,217.662 190.508,217.328 191.5,217.5 Z"/></g>
<g><path style="opacity:1" fill="#905f5f" d="M 183.5,225.5 C 183.5,224.167 183.5,222.833 183.5,221.5C 182.167,221.5 180.833,221.5 179.5,221.5C 179.5,222.833 179.5,224.167 179.5,225.5C 178.539,223.735 178.205,221.735 178.5,219.5C 180.5,219.5 182.5,219.5 184.5,219.5C 184.795,221.735 184.461,223.735 183.5,225.5 Z"/></g>
<g><path style="opacity:1" fill="#beb0b0" d="M 183.5,225.5 C 182.167,225.5 180.833,225.5 179.5,225.5C 179.5,224.167 179.5,222.833 179.5,221.5C 180.833,221.5 182.167,221.5 183.5,221.5C 183.5,222.833 183.5,224.167 183.5,225.5 Z"/></g>
<g><path style="opacity:1" fill="#a87070" d="M 186.5,229.5 C 186.53,230.497 186.03,231.164 185,231.5C 182.667,228.833 180.333,228.833 178,231.5C 177.235,231.43 176.735,231.097 176.5,230.5C 177.492,230.672 178.158,230.338 178.5,229.5C 178.97,228.307 179.97,227.64 181.5,227.5C 183.304,227.986 184.971,228.653 186.5,229.5 Z"/></g>
<g><path style="opacity:1" fill="#ac6f6f" d="M 226.5,227.5 C 227.94,229.42 227.607,231.087 225.5,232.5C 224.126,231.289 222.626,230.289 221,229.5C 219.667,230.167 218.333,230.833 217,231.5C 216.235,231.43 215.735,231.097 215.5,230.5C 217.392,229.298 219.226,227.965 221,226.5C 222.351,228.019 223.851,229.352 225.5,230.5C 226.386,229.675 226.719,228.675 226.5,227.5 Z"/></g>
<g><path style="opacity:1" fill="#b49191" d="M 212.5,211.5 C 213.473,213.948 213.806,216.615 213.5,219.5C 213.235,223.13 211.902,226.297 209.5,229C 210,229.5 210.5,230 211,230.5C 213.324,227.52 214.824,224.187 215.5,220.5C 216.451,219.081 216.784,217.415 216.5,215.5C 219.082,215.025 221.082,215.692 222.5,217.5C 221.702,223.988 220.368,223.988 218.5,217.5C 217.962,219.764 218.296,222.097 219.5,224.5C 218.118,226.549 216.452,228.215 214.5,229.5C 213.341,230.456 212.174,231.456 211,232.5C 208.901,231.713 206.734,231.38 204.5,231.5C 204.697,226.026 204.031,220.692 202.5,215.5C 203.117,215.611 203.617,215.944 204,216.5C 205.029,213.125 207.196,211.958 210.5,213C 209.289,213.893 209.289,214.726 210.5,215.5C 211.705,214.423 212.372,213.09 212.5,211.5 Z"/></g>
<g><path style="opacity:1" fill="#1d1616" d="M 205.5,216.5 C 207.08,218.717 208.08,221.384 208.5,224.5C 209.167,223.833 209.833,223.167 210.5,222.5C 210.833,222.833 211.167,223.167 211.5,223.5C 209.833,225.5 208.167,227.5 206.5,229.5C 205.508,225.217 205.174,220.884 205.5,216.5 Z"/></g>
<g><path style="opacity:1" fill="#ac7b7b" d="M 194.5,227.5 C 194.082,228.222 193.416,228.722 192.5,229C 194.489,230.554 196.489,230.387 198.5,228.5C 197.555,231.987 195.222,233.32 191.5,232.5C 191.5,230.833 191.5,229.167 191.5,227.5C 192.5,227.5 193.5,227.5 194.5,227.5 Z"/></g>
<g><path style="opacity:1" fill="#080808" d="M 192.5,238.5 C 190.692,239.907 188.692,241.074 186.5,242C 185.167,242.667 185.167,243.333 186.5,244C 182.733,243.759 180.066,245.259 178.5,248.5C 178.167,247.5 177.5,246.833 176.5,246.5C 179.54,245.266 180.873,242.932 180.5,239.5C 181.15,239.804 181.817,240.137 182.5,240.5C 183.711,238.578 185.044,236.745 186.5,235C 191.509,232.193 193.509,233.36 192.5,238.5 Z"/></g>
<g><path style="opacity:1" fill="#b5b3b3" d="M 192.5,238.5 C 194.41,239.684 194.743,241.184 193.5,243C 206.162,243.5 218.829,243.667 231.5,243.5C 229.365,245.071 227.032,246.404 224.5,247.5C 213.341,246.341 202.008,246.174 190.5,247C 188.833,248.667 187.167,250.333 185.5,252C 181.795,253.313 179.462,252.146 178.5,248.5C 180.066,245.259 182.733,243.759 186.5,244C 185.167,243.333 185.167,242.667 186.5,242C 188.692,241.074 190.692,239.907 192.5,238.5 Z"/></g>
<g><path style="opacity:1" fill="#f6364e" d="M 238.5,252.5 C 235.515,253.326 232.849,254.659 230.5,256.5C 229.222,256.218 228.222,255.551 227.5,254.5C 226.773,252.046 225.773,249.713 224.5,247.5C 227.032,246.404 229.365,245.071 231.5,243.5C 233.84,242.914 236.007,241.914 238,240.5C 240.087,243.673 241.921,247.006 243.5,250.5C 241.709,251.17 240.042,251.837 238.5,252.5 Z"/></g>
<g><path style="opacity:1" fill="#fdfdfd" d="M 126.5,250.5 C 130.036,251.601 133.369,253.268 136.5,255.5C 140.205,258.205 143.205,261.538 145.5,265.5C 131.833,265.5 118.167,265.5 104.5,265.5C 105.167,264.5 105.833,263.5 106.5,262.5C 110.38,258.455 114.713,254.955 119.5,252C 121.677,250.798 124.011,250.298 126.5,250.5 Z"/></g>
<g><path style="opacity:0.999" fill="#f5dca4" d="M 238.5,252.5 C 244.85,266.572 251.183,280.572 257.5,294.5C 257.935,297.157 258.935,299.491 260.5,301.5C 264.701,312.265 269.201,322.932 274,333.5C 275.704,335.373 277.537,337.04 279.5,338.5C 280.468,341.445 280.634,344.445 280,347.5C 278.164,349.604 275.998,349.938 273.5,348.5C 271.814,345.063 270.147,341.729 268.5,338.5C 262.345,322.865 255.678,307.532 248.5,292.5C 242.095,280.745 236.095,268.745 230.5,256.5C 232.849,254.659 235.515,253.326 238.5,252.5 Z"/></g>
<g><path style="opacity:1" fill="#eb3d3d" d="M 225.5,268.5 C 227.168,270.479 227.834,272.812 227.5,275.5C 224.579,275.854 222.246,274.854 220.5,272.5C 216.292,277.78 212.125,277.78 208,272.5C 203.667,279.167 199.333,279.167 195,272.5C 193.296,274.373 191.463,276.04 189.5,277.5C 191.495,272.123 190.495,267.456 186.5,263.5C 189.646,261.425 192.979,259.592 196.5,258C 199.5,257.333 202.5,257.333 205.5,258C 212.92,260.209 219.587,263.709 225.5,268.5 Z"/></g>
<g><path style="opacity:1" fill="#fcfcfc" d="M 304.5,264.5 C 303.448,264.351 302.448,264.517 301.5,265C 302.975,268.115 304.308,271.282 305.5,274.5C 305.859,276.371 306.859,277.871 308.5,279C 312.389,280.427 316.222,281.927 320,283.5C 320.667,287.5 320.667,291.5 320,295.5C 318.238,301.649 314.071,304.816 307.5,305C 295.5,305.667 283.5,305.667 271.5,305C 267.463,304.887 263.796,303.721 260.5,301.5C 258.935,299.491 257.935,297.157 257.5,294.5C 256.372,283.97 259.372,274.97 266.5,267.5C 270.259,264.287 274.592,262.121 279.5,261C 288.424,259.922 297.09,260.922 305.5,264C 305.272,264.399 304.938,264.565 304.5,264.5 Z"/></g>
<g><path style="opacity:1" fill="#f7f5f6" d="M 186.5,263.5 C 190.495,267.456 191.495,272.123 189.5,277.5C 187.57,276.237 185.903,274.57 184.5,272.5C 183.125,275.729 180.792,276.896 177.5,276C 176.944,275.617 176.611,275.117 176.5,274.5C 183.968,273.326 185.301,269.826 180.5,264C 178.866,263.506 177.199,263.34 175.5,263.5C 175.679,262.038 177.012,261.371 179.5,261.5C 181.978,261.772 184.311,262.438 186.5,263.5 Z"/></g>
<g><path style="opacity:1" fill="#080808" d="M 104.5,265.5 C 118.167,265.5 131.833,265.5 145.5,265.5C 148.411,264.017 151.078,264.35 153.5,266.5C 154.833,268.833 154.833,271.167 153.5,273.5C 151.521,275.168 149.188,275.834 146.5,275.5C 131.833,275.5 117.167,275.5 102.5,275.5C 96.4573,275.132 94.4573,272.132 96.5,266.5C 98.9225,264.35 101.589,264.017 104.5,265.5 Z"/></g>
<g><path style="opacity:1" fill="#409967" d="M 304.5,264.5 C 308.469,265.343 312.469,266.509 316.5,268C 320.23,271.463 323.23,275.463 325.5,280C 317.713,281.868 311.047,280.035 305.5,274.5C 304.308,271.282 302.975,268.115 301.5,265C 302.448,264.517 303.448,264.351 304.5,264.5 Z"/></g>
<g><path style="opacity:1" fill="#191919" d="M 284.5,269.5 C 288.85,268.006 290.683,269.672 290,274.5C 285,277.833 282.667,276.5 283,270.5C 284.085,273.817 285.585,274.151 287.5,271.5C 286.995,270.081 285.995,269.415 284.5,269.5 Z"/></g>
<g><path style="opacity:1" fill="#356bc5" d="M 175.5,263.5 C 177.199,263.34 178.866,263.506 180.5,264C 185.301,269.826 183.968,273.326 176.5,274.5C 175.833,273.167 174.833,272.167 173.5,271.5C 171.963,268.315 172.63,265.648 175.5,263.5 Z"/></g>
<g><path style="opacity:1" fill="#b9d0e1" d="M 178.5,267.5 C 177.833,267.5 177.167,267.5 176.5,267.5C 177.167,264.833 177.833,264.833 178.5,267.5 Z"/></g>
<g><path style="opacity:1" fill="#100605" d="M 173.5,271.5 C 174.833,272.167 175.833,273.167 176.5,274.5C 176.611,275.117 176.944,275.617 177.5,276C 180.792,276.896 183.125,275.729 184.5,272.5C 185.903,274.57 187.57,276.237 189.5,277.5C 191.463,276.04 193.296,274.373 195,272.5C 199.333,279.167 203.667,279.167 208,272.5C 212.125,277.78 216.292,277.78 220.5,272.5C 222.246,274.854 224.579,275.854 227.5,275.5C 227.834,272.812 227.168,270.479 225.5,268.5C 227.38,268.771 228.713,268.104 229.5,266.5C 232.068,267.574 233.735,269.574 234.5,272.5C 233.754,273.736 233.421,275.07 233.5,276.5C 232.625,278.568 231.459,280.568 230,282.5C 229.167,280.833 228.333,279.167 227.5,277.5C 226.998,276.479 226.332,276.312 225.5,277C 224.205,279.758 222.539,282.258 220.5,284.5C 218.343,282.208 216.176,279.875 214,277.5C 212,280.167 210,282.833 208,285.5C 206.229,282.948 204.229,280.615 202,278.5C 199.22,280.692 196.886,283.359 195,286.5C 193.414,283.659 191.58,280.993 189.5,278.5C 187.6,280.619 185.934,282.953 184.5,285.5C 183.824,284.398 183.158,283.398 182.5,282.5C 180.946,276.518 178.946,276.184 176.5,281.5C 175.685,282.429 174.852,283.429 174,284.5C 173.102,281.931 171.935,279.598 170.5,277.5C 170.565,277.062 170.399,276.728 170,276.5C 168.198,277.789 167.031,279.456 166.5,281.5C 165.833,281.833 165.167,282.167 164.5,282.5C 163.18,279.188 161.846,275.855 160.5,272.5C 162.899,271.206 164.399,269.206 165,266.5C 165.333,266.167 165.667,265.833 166,265.5C 166.833,267 168,268.167 169.5,269C 167.398,270.733 167.065,272.733 168.5,275C 171.011,275.239 172.677,274.072 173.5,271.5 Z"/></g>
<g><path style="opacity:1" fill="#070b15" d="M 176.5,267.5 C 177.167,267.5 177.833,267.5 178.5,267.5C 180.106,266.22 181.106,266.72 181.5,269C 179.167,273.667 176.833,273.667 174.5,269C 174.836,267.97 175.503,267.47 176.5,267.5 Z"/></g>
<g><path style="opacity:1" fill="#2b2b2b" d="M 102.5,275.5 C 117.167,275.5 131.833,275.5 146.5,275.5C 146.5,276.167 146.5,276.833 146.5,277.5C 131.833,277.5 117.167,277.5 102.5,277.5C 102.5,276.833 102.5,276.167 102.5,275.5 Z"/></g>
<g><path style="opacity:1" fill="#191919" d="M 299.5,278.5 C 303.85,277.006 305.683,278.672 305,283.5C 300,286.833 297.667,285.5 298,279.5C 299.085,282.817 300.585,283.151 302.5,280.5C 301.995,279.081 300.995,278.415 299.5,278.5 Z"/></g>
<g><path style="opacity:1" fill="#020202" d="M 102.5,277.5 C 117.167,277.5 131.833,277.5 146.5,277.5C 146.657,278.873 146.49,280.207 146,281.5C 132.242,280.344 118.408,280.177 104.5,281C 103.167,282.333 103.167,283.667 104.5,285C 118.408,285.823 132.242,285.656 146,284.5C 147.127,290.755 146.46,296.755 144,302.5C 142.581,303.46 141.081,304.293 139.5,305C 129.5,305.667 119.5,305.667 109.5,305C 108.473,304.487 107.473,303.987 106.5,303.5C 104.59,302.025 103.424,300.025 103,297.5C 102.5,290.842 102.334,284.175 102.5,277.5 Z"/></g>
<g><path style="opacity:1" fill="#b4b2b1" d="M 227.5,254.5 C 228.222,255.551 229.222,256.218 230.5,256.5C 236.095,268.745 242.095,280.745 248.5,292.5C 217.167,292.5 185.833,292.5 154.5,292.5C 154.5,295.5 154.5,298.5 154.5,301.5C 154.5,302.833 154.5,304.167 154.5,305.5C 149.639,305.063 144.972,305.563 140.5,307C 130.167,307.667 119.833,307.667 109.5,307C 107.937,306.241 106.937,305.074 106.5,303.5C 107.473,303.987 108.473,304.487 109.5,305C 119.5,305.667 129.5,305.667 139.5,305C 141.081,304.293 142.581,303.46 144,302.5C 146.46,296.755 147.127,290.755 146,284.5C 132.242,285.656 118.408,285.823 104.5,285C 103.167,283.667 103.167,282.333 104.5,281C 118.408,280.177 132.242,280.344 146,281.5C 146.49,280.207 146.657,278.873 146.5,277.5C 146.5,276.833 146.5,276.167 146.5,275.5C 149.188,275.834 151.521,275.168 153.5,273.5C 153.5,279.167 153.5,284.833 153.5,290.5C 154.833,290.5 156.167,290.5 157.5,290.5C 186.997,291.664 216.664,291.831 246.5,291C 242.301,285.972 237.968,281.139 233.5,276.5C 233.421,275.07 233.754,273.736 234.5,272.5C 233.735,269.574 232.068,267.574 229.5,266.5C 230.278,265.844 230.944,265.011 231.5,264C 229.992,260.829 228.659,257.662 227.5,254.5 Z"/></g>
<g><path style="opacity:1" fill="#a26666" d="M 170.5,277.5 C 169.5,279.167 168.167,280.5 166.5,281.5C 167.031,279.456 168.198,277.789 170,276.5C 170.399,276.728 170.565,277.062 170.5,277.5 Z"/></g>
<g><path style="opacity:1" fill="#e43b3b" d="M 233.5,276.5 C 237.968,281.139 242.301,285.972 246.5,291C 216.664,291.831 186.997,291.664 157.5,290.5C 160.573,288.431 162.906,285.764 164.5,282.5C 165.167,282.167 165.833,281.833 166.5,281.5C 168.167,280.5 169.5,279.167 170.5,277.5C 171.935,279.598 173.102,281.931 174,284.5C 174.852,283.429 175.685,282.429 176.5,281.5C 178.265,282.461 180.265,282.795 182.5,282.5C 183.158,283.398 183.824,284.398 184.5,285.5C 185.934,282.953 187.6,280.619 189.5,278.5C 191.58,280.993 193.414,283.659 195,286.5C 196.886,283.359 199.22,280.692 202,278.5C 204.229,280.615 206.229,282.948 208,285.5C 210,282.833 212,280.167 214,277.5C 216.176,279.875 218.343,282.208 220.5,284.5C 222.539,282.258 224.205,279.758 225.5,277C 226.332,276.312 226.998,276.479 227.5,277.5C 228.333,279.167 229.167,280.833 230,282.5C 231.459,280.568 232.625,278.568 233.5,276.5 Z"/></g>
<g><path style="opacity:1" fill="#e8d1d2" d="M 182.5,282.5 C 180.265,282.795 178.265,282.461 176.5,281.5C 178.946,276.184 180.946,276.518 182.5,282.5 Z"/></g>
<g><path style="opacity:1" fill="#f8f8f8" d="M 248.5,292.5 C 248.854,312.467 240.854,327.8 224.5,338.5C 224.167,338.5 223.833,338.5 223.5,338.5C 221.83,338.751 220.33,339.418 219,340.5C 218.502,343.482 218.335,346.482 218.5,349.5C 207.167,349.5 195.833,349.5 184.5,349.5C 184.664,346.813 184.497,344.146 184,341.5C 167.404,335.657 157.904,323.99 155.5,306.5C 155.784,304.585 155.451,302.919 154.5,301.5C 154.5,298.5 154.5,295.5 154.5,292.5C 185.833,292.5 217.167,292.5 248.5,292.5 Z"/></g>
<g><path style="opacity:0.125" fill="#8b8b8b" d="M 73.5,299.5 C 73.5,300.5 73.5,301.5 73.5,302.5C 73.5,303.5 73.5,304.5 73.5,305.5C 64.8269,305.334 56.1603,305.5 47.5,306C 45.714,306.785 44.214,307.951 43,309.5C 41.4021,317.061 41.0687,324.728 42,332.5C 43.1667,335 45,336.833 47.5,338C 89.1653,338.5 130.832,338.667 172.5,338.5C 176.035,339.265 179.369,340.599 182.5,342.5C 182.145,343.522 181.478,344.189 180.5,344.5C 135.165,344.667 89.8321,344.5 44.5,344C 40.3333,342.5 37.5,339.667 36,335.5C 35.3333,326.5 35.3333,317.5 36,308.5C 37.5,304.333 40.3333,301.5 44.5,300C 54.1609,299.5 63.8276,299.334 73.5,299.5 Z"/></g>
<g><path style="opacity:0.122" fill="#8b8b8b" d="M 329.5,299.5 C 338.839,299.334 348.173,299.5 357.5,300C 361.667,301.5 364.5,304.333 366,308.5C 366.667,317.5 366.667,326.5 366,335.5C 364.5,339.667 361.667,342.5 357.5,344C 333.836,344.5 310.169,344.667 286.5,344.5C 287.473,352.271 284.14,355.938 276.5,355.5C 274.109,355.441 271.775,355.107 269.5,354.5C 267.058,351.952 265.392,348.952 264.5,345.5C 250.516,344.501 236.516,344.167 222.5,344.5C 221.305,344.134 220.639,343.301 220.5,342C 221.544,340.826 222.544,339.659 223.5,338.5C 223.833,338.5 224.167,338.5 224.5,338.5C 225.5,338.5 226.5,338.5 227.5,338.5C 240.5,338.5 253.5,338.5 266.5,338.5C 267.167,338.5 267.833,338.5 268.5,338.5C 270.147,341.729 271.814,345.063 273.5,348.5C 275.998,349.938 278.164,349.604 280,347.5C 280.634,344.445 280.468,341.445 279.5,338.5C 305.256,338.981 330.923,338.481 356.5,337C 358.049,335.786 359.215,334.286 360,332.5C 360.931,324.728 360.598,317.061 359,309.5C 357.786,307.951 356.286,306.785 354.5,306C 346.173,305.5 337.84,305.334 329.5,305.5C 329.5,303.5 329.5,301.5 329.5,299.5 Z"/></g>
<g><path style="opacity:1" fill="#d4d4d4" d="M 96.5,266.5 C 94.4573,272.132 96.4573,275.132 102.5,275.5C 102.5,276.167 102.5,276.833 102.5,277.5C 102.334,284.175 102.5,290.842 103,297.5C 103.424,300.025 104.59,302.025 106.5,303.5C 106.937,305.074 107.937,306.241 109.5,307C 119.833,307.667 130.167,307.667 140.5,307C 144.972,305.563 149.639,305.063 154.5,305.5C 154.5,304.167 154.5,302.833 154.5,301.5C 155.451,302.919 155.784,304.585 155.5,306.5C 154.861,307.097 154.528,307.93 154.5,309C 156.576,321.334 162.576,331.167 172.5,338.5C 130.832,338.667 89.1653,338.5 47.5,338C 45,336.833 43.1667,335 42,332.5C 41.0687,324.728 41.4021,317.061 43,309.5C 44.214,307.951 45.714,306.785 47.5,306C 56.1603,305.5 64.8269,305.334 73.5,305.5C 73.5,304.5 73.5,303.5 73.5,302.5C 83.1724,302.666 92.8391,302.5 102.5,302C 101.518,293.919 101.184,285.752 101.5,277.5C 94.6125,277.447 92.1125,274.113 94,267.5C 94.6708,266.748 95.5041,266.414 96.5,266.5 Z"/></g>
<g><path style="opacity:1" fill="#bebdbb" d="M 248.5,292.5 C 255.678,307.532 262.345,322.865 268.5,338.5C 267.833,338.5 267.167,338.5 266.5,338.5C 262.896,328.622 258.73,318.955 254,309.5C 253.51,308.207 253.343,306.873 253.5,305.5C 251.833,305.5 250.167,305.5 248.5,305.5C 245.866,319.431 238.866,330.431 227.5,338.5C 226.5,338.5 225.5,338.5 224.5,338.5C 240.854,327.8 248.854,312.467 248.5,292.5 Z"/></g>
<g><path style="opacity:1" fill="#d4d4d4" d="M 266.5,338.5 C 253.5,338.5 240.5,338.5 227.5,338.5C 238.866,330.431 245.866,319.431 248.5,305.5C 250.167,305.5 251.833,305.5 253.5,305.5C 253.343,306.873 253.51,308.207 254,309.5C 258.73,318.955 262.896,328.622 266.5,338.5 Z"/></g>
<g><path style="opacity:0.121" fill="#a9a9a9" d="M 155.5,306.5 C 157.904,323.99 167.404,335.657 184,341.5C 184.497,344.146 184.664,346.813 184.5,349.5C 195.833,349.5 207.167,349.5 218.5,349.5C 218.335,346.482 218.502,343.482 219,340.5C 220.33,339.418 221.83,338.751 223.5,338.5C 222.544,339.659 221.544,340.826 220.5,342C 220.639,343.301 221.305,344.134 222.5,344.5C 222.5,347.167 222.5,349.833 222.5,352.5C 208.829,352.667 195.163,352.5 181.5,352C 180.565,349.619 180.232,347.119 180.5,344.5C 181.478,344.189 182.145,343.522 182.5,342.5C 179.369,340.599 176.035,339.265 172.5,338.5C 162.576,331.167 156.576,321.334 154.5,309C 154.528,307.93 154.861,307.097 155.5,306.5 Z"/></g>
</svg>
